<svg xmlns="http://www.w3.org/2000/svg" width="980" height="520" viewBox="0 0 980 520">
<rect width="980" height="520" fill="white"/><style>text{font-family:Arial,sans-serif;fill:#222}.h{font-size:26px;font-weight:700}.l{font-size:14px}</style>
<text x="40" y="42" class="h">Lithology × fault-type composition — normalized view</text>
<text x="40" y="78" class="l">Use the generated Python heatmap for exact proportions; this preview emphasizes the comparison design.</text>
<g transform="translate(180 110)">
<text x="50" y="-15" text-anchor="middle" class="l">normal</text><text x="170" y="-15" text-anchor="middle" class="l">inverted</text><text x="290" y="-15" text-anchor="middle" class="l">dextral</text><text x="410" y="-15" text-anchor="middle" class="l">sinistral</text><text x="530" y="-15" text-anchor="middle" class="l">extension</text><text x="650" y="-15" text-anchor="middle" class="l">pressure</text>
<text x="-15" y="34" text-anchor="end" class="l">Muschelkalk</text><rect x="0" y="0" width="100" height="38" rx="4" fill="hsl(205,55%,88%)"/><rect x="120" y="0" width="100" height="38" rx="4" fill="hsl(212,55%,80%)"/><rect x="240" y="0" width="100" height="38" rx="4" fill="hsl(219,55%,72%)"/><rect x="360" y="0" width="100" height="38" rx="4" fill="hsl(226,55%,64%)"/><rect x="480" y="0" width="100" height="38" rx="4" fill="hsl(233,55%,56%)"/><rect x="600" y="0" width="100" height="38" rx="4" fill="hsl(240,55%,88%)"/><text x="-15" y="89" text-anchor="end" class="l">Granite</text><rect x="0" y="55" width="100" height="38" rx="4" fill="hsl(205,55%,80%)"/><rect x="120" y="55" width="100" height="38" rx="4" fill="hsl(212,55%,72%)"/><rect x="240" y="55" width="100" height="38" rx="4" fill="hsl(219,55%,64%)"/><rect x="360" y="55" width="100" height="38" rx="4" fill="hsl(226,55%,56%)"/><rect x="480" y="55" width="100" height="38" rx="4" fill="hsl(233,55%,88%)"/><rect x="600" y="55" width="100" height="38" rx="4" fill="hsl(240,55%,80%)"/><text x="-15" y="144" text-anchor="end" class="l">Buntsandstein</text><rect x="0" y="110" width="100" height="38" rx="4" fill="hsl(205,55%,72%)"/><rect x="120" y="110" width="100" height="38" rx="4" fill="hsl(212,55%,64%)"/><rect x="240" y="110" width="100" height="38" rx="4" fill="hsl(219,55%,56%)"/><rect x="360" y="110" width="100" height="38" rx="4" fill="hsl(226,55%,88%)"/><rect x="480" y="110" width="100" height="38" rx="4" fill="hsl(233,55%,80%)"/><rect x="600" y="110" width="100" height="38" rx="4" fill="hsl(240,55%,72%)"/><text x="-15" y="199" text-anchor="end" class="l">Zechstein</text><rect x="0" y="165" width="100" height="38" rx="4" fill="hsl(205,55%,64%)"/><rect x="120" y="165" width="100" height="38" rx="4" fill="hsl(212,55%,56%)"/><rect x="240" y="165" width="100" height="38" rx="4" fill="hsl(219,55%,88%)"/><rect x="360" y="165" width="100" height="38" rx="4" fill="hsl(226,55%,80%)"/><rect x="480" y="165" width="100" height="38" rx="4" fill="hsl(233,55%,72%)"/><rect x="600" y="165" width="100" height="38" rx="4" fill="hsl(240,55%,64%)"/><text x="-15" y="254" text-anchor="end" class="l">Basalt</text><rect x="0" y="220" width="100" height="38" rx="4" fill="hsl(205,55%,56%)"/><rect x="120" y="220" width="100" height="38" rx="4" fill="hsl(212,55%,88%)"/><rect x="240" y="220" width="100" height="38" rx="4" fill="hsl(219,55%,80%)"/><rect x="360" y="220" width="100" height="38" rx="4" fill="hsl(226,55%,72%)"/><rect x="480" y="220" width="100" height="38" rx="4" fill="hsl(233,55%,64%)"/><rect x="600" y="220" width="100" height="38" rx="4" fill="hsl(240,55%,56%)"/><text x="-15" y="309" text-anchor="end" class="l">Rhyolite</text><rect x="0" y="275" width="100" height="38" rx="4" fill="hsl(205,55%,88%)"/><rect x="120" y="275" width="100" height="38" rx="4" fill="hsl(212,55%,80%)"/><rect x="240" y="275" width="100" height="38" rx="4" fill="hsl(219,55%,72%)"/><rect x="360" y="275" width="100" height="38" rx="4" fill="hsl(226,55%,64%)"/><rect x="480" y="275" width="100" height="38" rx="4" fill="hsl(233,55%,56%)"/><rect x="600" y="275" width="100" height="38" rx="4" fill="hsl(240,55%,88%)"/>
</g></svg>